<svg width="24" height="24" viewBox="0 0 24 24" fill="none" xmlns="http://www.w3.org/2000/svg">
<path fill-rule="evenodd" clip-rule="evenodd" d="M3.25 20.25C3.25 19.9739 3.47386 19.75 3.75 19.75L20.25 19.75C20.5261 19.75 20.75 19.9739 20.75 20.25C20.75 20.5261 20.5261 20.75 20.25 20.75L3.75 20.75C3.47386 20.75 3.25 20.5261 3.25 20.25Z" fill="#232323"/>
<path fill-rule="evenodd" clip-rule="evenodd" d="M4.75 10.75H17.75V13.5C17.75 17.0898 14.8399 20 11.25 20C7.66015 20 4.75 17.0898 4.75 13.5V10.75ZM5.75 11.75V13.5C5.75 16.5376 8.21243 19 11.25 19C14.2876 19 16.75 16.5376 16.75 13.5V11.75H5.75Z" fill="#232323"/>
<path fill-rule="evenodd" clip-rule="evenodd" d="M12.8013 4.20069C13.5751 4.81974 13.6896 5.95358 13.0552 6.71486L12.7592 7.07011C12.5824 7.28225 12.2671 7.31091 12.055 7.13413C11.8428 6.95735 11.8142 6.64206 11.9909 6.42993L12.287 6.07467C12.5628 5.74368 12.513 5.25071 12.1766 4.98155C11.2912 4.27329 11.2912 2.92675 12.1766 2.21848L12.6252 1.85958C12.8408 1.68708 13.1555 1.72204 13.328 1.93767C13.5005 2.1533 13.4655 2.46795 13.2499 2.64045L12.8013 2.99935C12.4163 3.30729 12.4163 3.89274 12.8013 4.20069Z" fill="#232323"/>
<path fill-rule="evenodd" clip-rule="evenodd" d="M10.8292 7.8763C10.6214 8.05814 10.3055 8.03708 10.1237 7.82926L9.7487 7.40069C8.93964 6.47604 8.93964 5.0954 9.7487 4.17075C9.93055 3.96294 10.2464 3.94188 10.4542 4.12372C10.6621 4.30556 10.6831 4.62144 10.5013 4.82926C10.0221 5.37688 10.0221 6.19456 10.5013 6.74218L10.8763 7.17075C11.0581 7.37857 11.0371 7.69445 10.8292 7.8763Z" fill="#232323"/>
<path fill-rule="evenodd" clip-rule="evenodd" d="M15.25 11.25C15.25 10.9739 15.4739 10.75 15.75 10.75H20.75V12C20.75 13.933 19.183 15.5 17.25 15.5C16.9739 15.5 16.75 15.2761 16.75 15C16.75 14.7239 16.9739 14.5 17.25 14.5C18.6307 14.5 19.75 13.3807 19.75 12V11.75H15.75C15.4739 11.75 15.25 11.5261 15.25 11.25Z" fill="#232323"/>
</svg>
