<?xml version="1.0" encoding="utf-8"?>
<!-- Generator: Adobe Illustrator 25.4.1, SVG Export Plug-In . SVG Version: 6.00 Build 0)  -->
<svg version="1.1" xmlns="http://www.w3.org/2000/svg" xmlns:xlink="http://www.w3.org/1999/xlink" x="0px" y="0px"
	 viewBox="0 0 64 64" enable-background="new 0 0 64 64" xml:space="preserve">
<g id="Layer_3">
</g>
<g id="Layer_4">
</g>
<g id="Layer_5">
</g>
<g id="Layer_6">
</g>
<g id="Layer_7">
</g>
<g id="Layer_8">
</g>
<g id="Layer_9">
</g>
<g id="Layer_10">
</g>
<g id="Layer_11">
</g>
<g id="Layer_12">
</g>
<g id="Layer_13">
</g>
<g id="Layer_14">
</g>
<g id="Layer_15">
</g>
<g id="Layer_16">
</g>
<g id="Layer_17">
</g>
<g id="Layer_18">
</g>
<g id="Layer_19">
</g>
<g id="Layer_20">
</g>
<g id="Layer_21">
	<g>
		<polygon fill="none" stroke="#000000" stroke-width="2" stroke-linejoin="round" stroke-miterlimit="10" points="23,62 35,34 
			38,36 35,46 39,43 41,47 36,50 32,62 		"/>
		<polyline fill="none" stroke="#000000" stroke-width="2" stroke-linejoin="round" stroke-miterlimit="10" points="33.378,37.784 
			31,36 12,58 18,62 30.174,45.261 		"/>
		<polyline fill="none" stroke="#000000" stroke-width="2" stroke-linejoin="round" stroke-miterlimit="10" points="36.851,49.489 
			44,62 51.999,62 39.684,47.789 		"/>
		<polyline fill="none" stroke="#000000" stroke-width="2" stroke-linejoin="round" stroke-miterlimit="10" points="34.5,54.5 
			36,62 40,62 38.783,52.87 		"/>
		<polyline fill="none" stroke="#000000" stroke-width="2" stroke-linejoin="round" stroke-miterlimit="10" points="28.173,39.274 
			29,31 33,31 33.742,36.935 		"/>
		<path fill="none" stroke="#000000" stroke-width="2" stroke-linejoin="round" stroke-miterlimit="10" d="M24.913,43.049
			l-3.765-3.295c-2-1.75-3.147-4.279-3.147-6.936v0c0-2.444,0.971-4.789,2.7-6.517l2.284-2.284C23.634,23.366,24,22.483,24,21.563v0
			c0-0.373-0.06-0.743-0.178-1.097l-0.555-1.665C23.09,18.271,23,17.715,23,17.156v0c0-1.38,0.548-2.704,1.524-3.68l1.175-1.175
			C28.496,9.504,30.35,5.902,31,2l0,0l0,0c1.921,1.921,3,4.526,3,7.243v4.109C34,14.262,34.738,15,35.649,15l0,0
			c0.786,0,1.462-0.555,1.617-1.325L38,10l0.297,0.595c1.12,2.24,1.703,4.709,1.703,7.213v0C40,18.466,40.534,19,41.193,19h0
			c0.488,0,0.926-0.297,1.107-0.75L44,14l2.889,5.056C47.617,20.33,48,21.772,48,23.239v0c0,1.8-0.533,3.56-1.532,5.058v0
			C46.163,28.755,46,29.294,46,29.845v0c0,0.74,0.294,1.449,0.817,1.972l0.44,0.44C48.373,33.373,49,34.887,49,36.465v0
			c0,2.193-1.204,4.207-3.137,5.244c-2.068,1.109-4.638,2.45-6,3.017"/>
		<path fill="none" stroke="#000000" stroke-width="2" stroke-linejoin="round" stroke-miterlimit="10" d="M28.676,34.235
			l-0.755-1.007C27.323,32.431,27,31.461,27,30.465v-0.247c0-1.386,0.692-2.679,1.845-3.448l0,0C29.567,26.289,30,25.479,30,24.612
			v0c0-0.403-0.094-0.8-0.274-1.16l-0.402-0.803C29.111,22.222,29,21.751,29,21.274v0c0-0.816,0.324-1.598,0.901-2.175L32,17v1.343
			c0,2.342,0.93,4.587,2.586,6.243l0,0c0.265,0.265,0.625,0.414,1,0.414h0C36.367,25,37,24.367,37,23.586V22l1.114,1.485
			C39.338,25.117,40,27.103,40,29.144v0c0,1.862-0.551,3.683-1.584,5.232l-0.877,1.316"/>
	</g>
</g>
<g id="Layer_22">
</g>
<g id="Layer_23">
</g>
<g id="Layer_24">
</g>
<g id="Layer_25">
</g>
<g id="Layer_26">
</g>
<g id="Layer_27">
</g>
<g id="Layer_28">
</g>
<g id="Layer_29">
</g>
<g id="Layer_30">
</g>
<g id="Layer_31">
</g>
<g id="Layer_32">
</g>
<g id="Layer_1" display="none">
</g>
<g id="Layer_2">
</g>
</svg>
