<svg width="24" height="24" viewBox="0 0 24 24" fill="none" xmlns="http://www.w3.org/2000/svg">
<path fill-rule="evenodd" clip-rule="evenodd" d="M2.5 20.8015C2.5 20.5254 2.72386 20.3015 3 20.3015L21 20.3015C21.2761 20.3015 21.5 20.5254 21.5 20.8015C21.5 21.0777 21.2761 21.3015 21 21.3015L3 21.3015C2.72386 21.3015 2.5 21.0777 2.5 20.8015Z" fill="#232323"/>
<path fill-rule="evenodd" clip-rule="evenodd" d="M7.00001 16.3501C7.00001 17.1233 7.62682 17.7501 8.40003 17.7501C9.17324 17.7501 9.80005 17.1233 9.80005 16.3501C9.80005 15.5769 9.17324 14.9501 8.40003 14.9501C7.62682 14.9501 7.00001 15.5769 7.00001 16.3501ZM6.00001 16.3501C6.00001 17.6756 7.07453 18.7501 8.40003 18.7501C9.72552 18.7501 10.8 17.6756 10.8 16.3501C10.8 15.0246 9.72552 13.9501 8.40003 13.9501C7.07453 13.9501 6.00001 15.0246 6.00001 16.3501Z" fill="#232323"/>
<path fill-rule="evenodd" clip-rule="evenodd" d="M6.92447 6.29193C7.17746 6.18124 7.47228 6.2966 7.58296 6.54959L10.1571 12.4333L13.6249 15.1305V20.625C13.6249 20.9011 13.401 21.125 13.1249 21.125C12.8487 21.125 12.6249 20.9011 12.6249 20.625V15.6195L9.34269 13.0667L6.6668 6.95041C6.55612 6.69742 6.67148 6.40261 6.92447 6.29193Z" fill="#232323"/>
<path fill-rule="evenodd" clip-rule="evenodd" d="M11.6779 1.86756C11.8892 1.68968 12.2046 1.71672 12.3825 1.92794L18.5 9.19253V11.898L13.0204 15.4206C12.7881 15.5699 12.4787 15.5027 12.3294 15.2704C12.1801 15.0381 12.2473 14.7287 12.4796 14.5794L17.5 11.352V9.5575L11.6176 2.57208C11.4397 2.36085 11.4667 2.04543 11.6779 1.86756Z" fill="#232323"/>
<path fill-rule="evenodd" clip-rule="evenodd" d="M18.4473 3.52638C18.5708 3.77337 18.4707 4.07371 18.2237 4.1972L13.5526 6.53278L16.1776 9.53278L10.3487 12.4472C10.1017 12.5707 9.80139 12.4706 9.6779 12.2236C9.5544 11.9766 9.65451 11.6763 9.9015 11.5528L14.5727 9.2172L11.9477 6.2172L17.7765 3.30277C18.0235 3.17928 18.3238 3.27939 18.4473 3.52638Z" fill="#232323"/>
</svg>
