<svg width="24" height="24" viewBox="0 0 24 24" fill="none" xmlns="http://www.w3.org/2000/svg">
<path fill-rule="evenodd" clip-rule="evenodd" d="M5.25 11.5C5.52614 11.5 5.75 11.7239 5.75 12V19.2499C5.75 19.526 5.52614 19.7499 5.25 19.7499C4.97386 19.7499 4.75 19.526 4.75 19.2499V12C4.75 11.7239 4.97386 11.5 5.25 11.5Z" fill="#232323"/>
<path fill-rule="evenodd" clip-rule="evenodd" d="M18.75 11.5C19.0261 11.5 19.25 11.7239 19.25 12V19.2499C19.25 19.526 19.0261 19.7499 18.75 19.7499C18.4739 19.7499 18.25 19.526 18.25 19.2499V12C18.25 11.7239 18.4739 11.5 18.75 11.5Z" fill="#232323"/>
<path fill-rule="evenodd" clip-rule="evenodd" d="M3.75 19H6.75V20H3.75V19Z" fill="#232323"/>
<path fill-rule="evenodd" clip-rule="evenodd" d="M17.25 19H20.25V20H17.25V19Z" fill="#232323"/>
<path fill-rule="evenodd" clip-rule="evenodd" d="M17.25 13H20.25V14H17.25V13Z" fill="#232323"/>
<path fill-rule="evenodd" clip-rule="evenodd" d="M3.75 13H6.75V14H3.75V13Z" fill="#232323"/>
<path fill-rule="evenodd" clip-rule="evenodd" d="M16.9288 14.5073C14.6962 18.228 9.30365 18.2282 7.07129 14.5073L7.9288 13.9928C9.77272 17.0662 14.2271 17.0662 16.0713 13.9928L16.9288 14.5073Z" fill="#232323"/>
<path fill-rule="evenodd" clip-rule="evenodd" d="M6.25 5.5C6.25 4.67157 6.92157 4 7.75 4H16.25C17.0784 4 17.75 4.67157 17.75 5.5V9.5C17.75 10.3284 17.0784 11 16.25 11H7.75C6.92157 11 6.25 10.3284 6.25 9.5V5.5ZM7.75 5C7.47386 5 7.25 5.22386 7.25 5.5V9.5C7.25 9.77614 7.47386 10 7.75 10H16.25C16.5261 10 16.75 9.77614 16.75 9.5V5.5C16.75 5.22386 16.5261 5 16.25 5H7.75Z" fill="#232323"/>
</svg>
