<svg width="21" height="20" viewBox="0 0 21 20" fill="none" xmlns="http://www.w3.org/2000/svg">
<g id="ic-sort-line">
<g id="Vector">
<path d="M10.0582 14.3418C10.2739 14.1345 10.2739 13.7983 10.0582 13.591C9.84259 13.3836 9.49297 13.3836 9.27733 13.591L7.12495 15.6606V4.16889C7.12495 3.86974 6.88244 3.62722 6.58328 3.62722C6.28413 3.62722 6.04162 3.86974 6.04162 4.16889V15.5003L4.0559 13.591C3.84026 13.3836 3.49065 13.3836 3.27501 13.591C3.05937 13.7983 3.05937 14.1345 3.27501 14.3418L6.27617 17.2276C6.49181 17.435 6.84143 17.435 7.05706 17.2276L10.0582 14.3418Z" fill="#1B1D1F"/>
<path d="M14.416 16.3746C14.1168 16.3746 13.8743 16.1321 13.8743 15.833V4.47974L11.8054 6.51238C11.592 6.72203 11.246 6.72203 11.0326 6.51238C10.8192 6.30272 10.8192 5.9628 11.0326 5.75315L14.0048 2.83302C14.2182 2.62337 14.5642 2.62337 14.7776 2.83302L17.7498 5.75315C17.9632 5.9628 17.9632 6.30272 17.7498 6.51238C17.5364 6.72203 17.1904 6.72203 16.977 6.51238L14.9576 4.52835V15.833C14.9576 16.1321 14.7151 16.3746 14.416 16.3746Z" fill="#1B1D1F"/>
</g>
</g>
</svg>
