<svg width="24" height="24" viewBox="0 0 24 24" fill="none" xmlns="http://www.w3.org/2000/svg">
<path fill-rule="evenodd" clip-rule="evenodd" d="M2.49976 5.41296C2.49976 4.58454 3.17133 3.91296 3.99976 3.91296H19.9999C20.8283 3.91296 21.4999 4.58454 21.4999 5.41296V13.7977C21.4999 14.6261 20.8283 15.2977 19.9999 15.2977H13.5V14.2977H19.9999C20.2761 14.2977 20.4999 14.0738 20.4999 13.7977V5.41296C20.4999 5.13682 20.2761 4.91296 19.9999 4.91296H3.99976C3.72361 4.91296 3.49976 5.13682 3.49976 5.41296V13.7977C3.49976 14.0738 3.72361 14.2977 3.99976 14.2977H5.26829V15.2977H3.99976C3.17133 15.2977 2.49976 14.6261 2.49976 13.7977V5.41296Z" fill="#232323"/>
<path fill-rule="evenodd" clip-rule="evenodd" d="M12.1924 13.2894H6.49996C5.94768 13.2894 5.49997 13.7371 5.49995 14.2894L5.49979 19.0787H13.1922L13.1924 14.2895C13.1924 13.7372 12.7447 13.2894 12.1924 13.2894ZM14.1922 20.0787L14.1924 14.2895C14.1924 13.1849 13.297 12.2894 12.1924 12.2894H6.49996C5.3954 12.2894 4.49998 13.1848 4.49994 14.2894L4.49976 20.0787H14.1922Z" fill="#232323"/>
<path fill-rule="evenodd" clip-rule="evenodd" d="M8.8457 16.386V12.9244H9.8457V16.386C9.8457 16.6621 9.62185 16.886 9.3457 16.886C9.06956 16.886 8.8457 16.6621 8.8457 16.386Z" fill="#232323"/>
<path fill-rule="evenodd" clip-rule="evenodd" d="M21 20.0001L3 20.0001C2.72386 20.0001 2.5 19.7763 2.5 19.5001C2.5 19.224 2.72386 19.0001 3 19.0001L21 19.0001C21.2761 19.0001 21.5 19.224 21.5 19.5001C21.5 19.7763 21.2761 20.0001 21 20.0001Z" fill="#232323"/>
<path fill-rule="evenodd" clip-rule="evenodd" d="M9.23066 10.8848C9.88916 10.8848 10.423 10.351 10.423 9.69245C10.423 9.03394 9.88916 8.50012 9.23066 8.50012C8.57215 8.50012 8.03833 9.03394 8.03833 9.69245C8.03833 10.351 8.57215 10.8848 9.23066 10.8848ZM9.23066 11.8848C10.4414 11.8848 11.423 10.9032 11.423 9.69245C11.423 8.48166 10.4414 7.50012 9.23066 7.50012C8.01987 7.50012 7.03833 8.48166 7.03833 9.69245C7.03833 10.9032 8.01987 11.8848 9.23066 11.8848Z" fill="#232323"/>
</svg>
