<svg width="24" height="24" viewBox="0 0 24 24" fill="none" xmlns="http://www.w3.org/2000/svg">
<path fill-rule="evenodd" clip-rule="evenodd" d="M8.87536 7.33582C7.10008 8.36277 5.87811 10.2363 5.75949 12.4023L4.76099 12.3476C4.89873 9.83238 6.31801 7.65991 8.37463 6.47021L8.87536 7.33582ZM18.236 12.3282C18.0939 10.1937 16.8797 8.35105 15.1246 7.33582L15.6254 6.47021C17.6585 7.64634 19.0688 9.78293 19.2338 12.2618L18.236 12.3282ZM12 19C13.2855 19 14.479 18.6124 15.4719 17.9478L16.0281 18.7788C14.8758 19.5502 13.4897 20 12 20C10.5184 20 9.13922 19.555 7.99064 18.7914L8.54431 17.9586C9.53392 18.6166 10.7214 19 12 19Z" fill="#232323"/>
<path fill-rule="evenodd" clip-rule="evenodd" d="M12 4.25C11.0335 4.25 10.25 5.0335 10.25 6C10.25 6.9665 11.0335 7.75 12 7.75C12.9665 7.75 13.75 6.9665 13.75 6C13.75 5.0335 12.9665 4.25 12 4.25ZM9.25 6C9.25 4.48122 10.4812 3.25 12 3.25C13.5188 3.25 14.75 4.48122 14.75 6C14.75 7.51878 13.5188 8.75 12 8.75C10.4812 8.75 9.25 7.51878 9.25 6Z" fill="#232323"/>
<path fill-rule="evenodd" clip-rule="evenodd" d="M6 14C5.0335 14 4.25 14.7835 4.25 15.75C4.25 16.7165 5.0335 17.5 6 17.5C6.9665 17.5 7.75 16.7165 7.75 15.75C7.75 14.7835 6.9665 14 6 14ZM3.25 15.75C3.25 14.2312 4.48122 13 6 13C7.51878 13 8.75 14.2312 8.75 15.75C8.75 17.2688 7.51878 18.5 6 18.5C4.48122 18.5 3.25 17.2688 3.25 15.75Z" fill="#232323"/>
<path fill-rule="evenodd" clip-rule="evenodd" d="M18 14C17.0335 14 16.25 14.7835 16.25 15.75C16.25 16.7165 17.0335 17.5 18 17.5C18.9665 17.5 19.75 16.7165 19.75 15.75C19.75 14.7835 18.9665 14 18 14ZM15.25 15.75C15.25 14.2312 16.4812 13 18 13C19.5188 13 20.75 14.2312 20.75 15.75C20.75 17.2688 19.5188 18.5 18 18.5C16.4812 18.5 15.25 17.2688 15.25 15.75Z" fill="#232323"/>
</svg>
