<svg width="24" height="24" viewBox="0 0 24 24" fill="none" xmlns="http://www.w3.org/2000/svg">
<path fill-rule="evenodd" clip-rule="evenodd" d="M2.5 2.5H7.5V3.5H3.5V7.5H2.5V2.5ZM20.5 3.5H16.5V2.5H21.5V7.5H20.5V3.5ZM3.5 20.5V16.5H2.5V21.5H7.5V20.5H3.5ZM20.5 20.5V16.5H21.5V21.5H16.5V20.5H20.5Z" fill="#232323"/>
<path fill-rule="evenodd" clip-rule="evenodd" d="M9.59985 7.17857C9.59985 5.83731 10.6872 4.75 12.0284 4.75C13.3697 4.75 14.457 5.83731 14.457 7.17857C14.457 7.24642 14.4542 7.31368 14.4487 7.38024C15.7219 7.45524 16.7312 8.51149 16.7312 9.80348C16.7312 10.4155 16.5043 10.9749 16.131 11.4015C16.2769 11.7138 16.3584 12.0621 16.3584 12.4286C16.3584 13.7698 15.2711 14.8571 13.9298 14.8571C13.1512 14.8571 12.4586 14.4905 12.0148 13.9222C11.5709 14.4905 10.8783 14.8571 10.0997 14.8571C8.75845 14.8571 7.67114 13.7698 7.67114 12.4286C7.67114 12.0569 7.75494 11.7039 7.90474 11.3883C7.51024 10.9567 7.2688 10.3813 7.2688 9.74986C7.2688 8.43983 8.30606 7.37207 9.60409 7.32305C9.60128 7.27521 9.59985 7.22704 9.59985 7.17857ZM12.0284 5.75C11.2394 5.75 10.5999 6.38959 10.5999 7.17857C10.5999 7.31417 10.6186 7.44456 10.6534 7.56769C10.7762 8.00311 10.396 8.42302 9.95046 8.34355C9.86866 8.32896 9.78412 8.32129 9.69737 8.32129C8.90839 8.32129 8.2688 8.96088 8.2688 9.74986C8.2688 10.191 8.46811 10.5851 8.78343 10.8479C9.02041 11.0454 9.07187 11.3898 8.903 11.648C8.7564 11.8721 8.67114 12.1396 8.67114 12.4286C8.67114 13.2176 9.31074 13.8571 10.0997 13.8571C10.6112 13.8571 11.0603 13.5887 11.3133 13.1827C11.386 13.0661 11.4843 13.0032 11.5434 12.972C11.6075 12.9381 11.6703 12.9181 11.72 12.9056C11.8198 12.8806 11.9239 12.8717 12.0148 12.8717C12.1056 12.8717 12.2098 12.8806 12.3095 12.9056C12.3592 12.9181 12.422 12.9381 12.4861 12.972C12.5452 13.0032 12.6435 13.0661 12.7162 13.1827C12.9692 13.5887 13.4183 13.8571 13.9298 13.8571C14.7188 13.8571 15.3584 13.2175 15.3584 12.4286C15.3584 12.1449 15.2762 11.882 15.1346 11.6605C14.973 11.4077 15.0201 11.0743 15.2455 10.8763C15.544 10.6139 15.7312 10.2309 15.7312 9.80348C15.7312 9.01509 15.0921 8.37598 14.3037 8.37598C14.2273 8.37598 14.1525 8.38194 14.0799 8.39335C13.6317 8.46372 13.26 8.03401 13.3937 7.60074C13.4347 7.46792 13.457 7.32631 13.457 7.17857C13.457 6.38959 12.8174 5.75 12.0284 5.75Z" fill="#232323"/>
<path fill-rule="evenodd" clip-rule="evenodd" d="M18.5 18C18.5 18.2761 18.2761 18.5 18 18.5H6C5.72386 18.5 5.5 18.2761 5.5 18C5.5 17.7239 5.72386 17.5 6 17.5H18C18.2761 17.5 18.5 17.7239 18.5 18Z" fill="#232323"/>
<path fill-rule="evenodd" clip-rule="evenodd" d="M12 9C12.2761 9 12.5 9.22386 12.5 9.5V18.125H11.5V9.5C11.5 9.22386 11.7239 9 12 9Z" fill="#232323"/>
<path fill-rule="evenodd" clip-rule="evenodd" d="M13.8536 10.1464C14.0489 10.3417 14.0489 10.6583 13.8536 10.8536L12.3536 12.3536L11.6465 11.6464L13.1465 10.1464C13.3417 9.95118 13.6583 9.95118 13.8536 10.1464Z" fill="#232323"/>
<path fill-rule="evenodd" clip-rule="evenodd" d="M10.1464 10.1464C9.95115 10.3417 9.95115 10.6583 10.1464 10.8536L11.6464 12.3536L12.3535 11.6464L10.8535 10.1464C10.6583 9.95118 10.3417 9.95118 10.1464 10.1464Z" fill="#232323"/>
</svg>
