<svg width="24" height="24" viewBox="0 0 24 24" fill="none" xmlns="http://www.w3.org/2000/svg">
<path fill-rule="evenodd" clip-rule="evenodd" d="M17.6249 6.5C16.214 6.5 15.0395 7.51687 14.7962 8.85783L13.8123 8.67931C14.1403 6.87118 15.722 5.5 17.6249 5.5C19.765 5.5 21.4999 7.2349 21.4999 9.375C21.4999 11.5151 19.765 13.25 17.6249 13.25C16.5766 13.25 15.6247 12.8331 14.9276 12.1571L15.6237 11.4392C16.1418 11.9416 16.8468 12.25 17.6249 12.25C19.2127 12.25 20.4999 10.9628 20.4999 9.375C20.4999 7.78718 19.2127 6.5 17.6249 6.5Z" fill="#232323"/>
<path fill-rule="evenodd" clip-rule="evenodd" d="M5.86313 10.1104C5.18671 9.5843 5.55874 8.5 6.41568 8.5H17.5841C18.441 8.5 18.813 9.58431 18.1366 10.1104L11.9998 14.8834L5.86313 10.1104ZM6.70713 9.5L11.9998 13.6166L17.2926 9.5H6.70713Z" fill="#232323"/>
<path fill-rule="evenodd" clip-rule="evenodd" d="M12 13.7502C12.2761 13.7502 12.5 13.9741 12.5 14.2502L12.5 19.875C12.5 20.1511 12.2761 20.375 12 20.375C11.7239 20.375 11.5 20.1511 11.5 19.875L11.5 14.2502C11.5 13.9741 11.7239 13.7502 12 13.7502Z" fill="#232323"/>
<path fill-rule="evenodd" clip-rule="evenodd" d="M14.75 20.25C14.75 20.5261 14.5261 20.75 14.25 20.75H9.75C9.47386 20.75 9.25 20.5261 9.25 20.25C9.25 19.9739 9.47386 19.75 9.75 19.75H14.25C14.5261 19.75 14.75 19.9739 14.75 20.25Z" fill="#232323"/>
<path fill-rule="evenodd" clip-rule="evenodd" d="M3.29031 3.55305C3.39909 3.29923 3.69303 3.18166 3.94684 3.29043L9.44813 5.64813L9.86808 8.16781C9.91348 8.44019 9.72947 8.69781 9.45708 8.7432C9.1847 8.7886 8.92708 8.60459 8.88169 8.33221L8.55163 6.35188L3.55292 4.20958C3.29911 4.1008 3.18153 3.80686 3.29031 3.55305Z" fill="#232323"/>
</svg>
