<svg width="24" height="24" viewBox="0 0 24 24" fill="none" xmlns="http://www.w3.org/2000/svg">
<g clip-path="url(#clip0_8624_6711)">
<path fill-rule="evenodd" clip-rule="evenodd" d="M12 4.01477C7.58979 4.01477 4.01465 7.58991 4.01465 12.0001C4.01465 16.4102 7.58979 19.9854 12 19.9854C16.4101 19.9854 19.9853 16.4102 19.9853 12.0001C19.9853 7.58991 16.4101 4.01477 12 4.01477ZM3.01465 12.0001C3.01465 7.03763 7.03751 3.01477 12 3.01477C16.9624 3.01477 20.9853 7.03763 20.9853 12.0001C20.9853 16.9625 16.9624 20.9854 12 20.9854C7.03751 20.9854 3.01465 16.9625 3.01465 12.0001Z" fill="#232323"/>
<path fill-rule="evenodd" clip-rule="evenodd" d="M20.0468 10.6517C14.9202 10.7988 10.7988 14.9202 10.6517 20.0468L11.6513 20.0754C11.7832 15.4787 15.4787 11.7832 20.0754 11.6513L20.0468 10.6517Z" fill="#232323"/>
<path fill-rule="evenodd" clip-rule="evenodd" d="M13.3998 3.91727C13.2218 9.0788 9.0788 13.2218 3.91727 13.3998L3.88281 12.4004C8.51909 12.2405 12.2405 8.51909 12.4004 3.88281L13.3998 3.91727Z" fill="#232323"/>
<path fill-rule="evenodd" clip-rule="evenodd" d="M17.3034 18.0104L5.98967 6.69673L6.69678 5.98962L18.0105 17.3033L17.3034 18.0104Z" fill="#232323"/>
<path fill-rule="evenodd" clip-rule="evenodd" d="M5.98968 17.3034L17.3034 5.98967L18.0105 6.69678L6.69679 18.0105L5.98968 17.3034Z" fill="#232323"/>
</g>
<defs>
<clipPath id="clip0_8624_6711">
<rect width="24" height="24" fill="white"/>
</clipPath>
</defs>
</svg>
