<svg width="24" height="24" viewBox="0 0 24 24" fill="none" xmlns="http://www.w3.org/2000/svg">
<path fill-rule="evenodd" clip-rule="evenodd" d="M6.09912 19.6275V14.9384H5.09912V20.6275H18.9005V14.9384H17.9005V19.6275H6.09912Z" fill="#232323"/>
<path fill-rule="evenodd" clip-rule="evenodd" d="M9.89966 16.6885H14.1V20.6271H9.89966V16.6885ZM10.8997 17.6885V19.6271H13.1V17.6885H10.8997Z" fill="#232323"/>
<path fill-rule="evenodd" clip-rule="evenodd" d="M6.1695 8.92566H10.1624V9.92566H6.75208L4.9618 13.0833C4.7853 13.3946 4.86908 13.7887 5.15695 14.0013C5.70367 14.405 6.43118 14.4664 7.03778 14.1599L8.65315 13.3437C8.81946 13.2596 9.01538 13.2576 9.18337 13.3383L10.4853 13.9632C11.4427 14.4228 12.557 14.4228 13.5144 13.9632L14.8163 13.3383C14.9843 13.2576 15.1802 13.2596 15.3466 13.3437L16.9619 14.1599C17.5685 14.4664 18.296 14.405 18.8428 14.0013C19.1306 13.7887 19.2144 13.3946 19.0379 13.0833L17.2476 9.92566H13.8373V8.92566H17.8302L19.9078 12.5901C20.3338 13.3415 20.1316 14.2926 19.4368 14.8057C18.5863 15.4338 17.4546 15.5292 16.511 15.0524L15.0714 14.3251L13.9471 14.8647C12.7162 15.4556 11.2835 15.4556 10.0526 14.8647L8.92826 14.3251L7.48875 15.0524C6.54512 15.5292 5.41339 15.4338 4.5629 14.8057C3.8681 14.2926 3.66589 13.3415 4.09189 12.5901L6.1695 8.92566Z" fill="#232323"/>
<path fill-rule="evenodd" clip-rule="evenodd" d="M11.9999 4.0343C10.5311 4.0343 9.29956 5.29137 9.29956 6.8937C9.29956 7.14665 9.37576 7.46208 9.52186 7.82398C9.66603 8.18108 9.86641 8.5548 10.0867 8.91643C10.4309 9.48121 10.8009 9.98175 11.0584 10.3301C11.1317 10.4292 11.1958 10.5159 11.2477 10.5883L11.9999 11.5835L12.752 10.5883C12.8039 10.5159 12.8681 10.429 12.9414 10.3298C13.1989 9.98152 13.5689 9.48108 13.913 8.91641C14.1333 8.55478 14.3337 8.18106 14.4779 7.82396C14.624 7.46206 14.7003 7.14664 14.7003 6.8937C14.7003 5.29137 13.4687 4.0343 11.9999 4.0343ZM8.29956 6.8937C8.29956 4.78534 9.93369 3.0343 11.9999 3.0343C14.0661 3.0343 15.7003 4.78534 15.7003 6.8937C15.7003 7.32713 15.5749 7.77799 15.4052 8.19835C15.2335 8.62351 15.0038 9.04805 14.7669 9.43676C14.3958 10.0458 13.9842 10.6022 13.7287 10.9474C13.6607 11.0393 13.6038 11.1163 13.5617 11.1752L13.5539 11.1861L12.494 12.5883C12.2451 12.9176 11.7548 12.9176 11.5059 12.5883L10.4378 11.1753C10.3957 11.1164 10.339 11.0394 10.2711 10.9476C10.0156 10.6024 9.60391 10.0459 9.23277 9.43674C8.99593 9.04803 8.76622 8.62349 8.59458 8.19833C8.42487 7.77797 8.29956 7.32712 8.29956 6.8937Z" fill="#232323"/>
<path fill-rule="evenodd" clip-rule="evenodd" d="M11.9995 6.03113C11.6111 6.03113 11.2963 6.34599 11.2963 6.73438C11.2963 7.12278 11.6111 7.43764 11.9995 7.43764C12.3879 7.43764 12.7028 7.12278 12.7028 6.73438C12.7028 6.34599 12.3879 6.03113 11.9995 6.03113ZM10.2963 6.73438C10.2963 5.7937 11.0588 5.03113 11.9995 5.03113C12.9402 5.03113 13.7028 5.7937 13.7028 6.73438C13.7028 7.67507 12.9402 8.43764 11.9995 8.43764C11.0588 8.43764 10.2963 7.67507 10.2963 6.73438Z" fill="#232323"/>
</svg>
