<svg width="24" height="24" viewBox="0 0 24 24" fill="none" xmlns="http://www.w3.org/2000/svg">
<path fill-rule="evenodd" clip-rule="evenodd" d="M8.25 18.9802H15.75V19.9802H8.25V18.9802Z" fill="#232323"/>
<path fill-rule="evenodd" clip-rule="evenodd" d="M10.0551 1.75H13.945L14.2828 4.64182L13.2896 4.75784L13.055 2.75H10.945L10.7105 4.75785L9.71722 4.64181L10.0551 1.75ZM9.1364 18.2319L8.70711 21.9066L7.71387 21.7906L8.14316 18.1159L9.1364 18.2319ZM14.8635 18.2319L15.8568 18.1159L16.286 21.7906L15.2928 21.9066L14.8635 18.2319Z" fill="#232323"/>
<path fill-rule="evenodd" clip-rule="evenodd" d="M21 4.82276L3 4.82275C2.72386 4.82275 2.5 4.5989 2.5 4.32275C2.5 4.04661 2.72386 3.82275 3 3.82275L21 3.82276C21.2761 3.82276 21.5 4.04661 21.5 4.32276C21.5 4.5989 21.2761 4.82276 21 4.82276ZM2.5 17.5858C2.5 17.3097 2.72386 17.0858 3 17.0858L21 17.0858C21.2761 17.0858 21.5 17.3097 21.5 17.5858C21.5 17.862 21.2761 18.0858 21 18.0858L3 18.0858C2.72386 18.0858 2.5 17.862 2.5 17.5858Z" fill="#232323"/>
<path fill-rule="evenodd" clip-rule="evenodd" d="M3.44702 3.82275H20.552V18.0858H3.44702V3.82275ZM4.44702 4.82275V17.0858H19.552V4.82275H4.44702Z" fill="#232323"/>
<path fill-rule="evenodd" clip-rule="evenodd" d="M9.60469 10.8715C10.8023 9.62232 12.3642 8.12791 13.4365 7.13342L14.1165 7.86662C13.051 8.85479 11.505 10.3344 10.3265 11.5635C10.0879 11.8124 9.86661 12.0487 9.66877 12.2668C9.83353 12.1653 10.0014 12.0601 10.1746 11.9515C10.4502 11.7786 10.7395 11.5972 11.0519 11.4089C11.6704 11.036 12.3245 10.6717 12.9004 10.4674C13.1879 10.3655 13.4879 10.2915 13.7729 10.2915C14.0649 10.2915 14.3796 10.3709 14.6244 10.6169C15.0283 11.0227 15.0712 11.6045 15.0597 12.0282C15.0535 12.2553 15.0293 12.4819 15.0069 12.6786C15.004 12.7042 15.0011 12.7291 14.9983 12.7534C14.9879 12.8445 14.9784 12.9267 14.9711 13.0016C15.1727 12.8721 15.4439 12.6682 15.804 12.3667L16.446 13.1334C16.0689 13.4491 15.7593 13.6844 15.5054 13.8469C15.2673 13.9993 15.0203 14.1265 14.7815 14.1536C14.6496 14.1686 14.4917 14.1562 14.3403 14.0727C14.1867 13.9879 14.094 13.8597 14.0411 13.7414C13.949 13.5355 13.9506 13.2979 13.9581 13.1375C13.9654 12.9813 13.9859 12.8038 14.0051 12.6375C14.0078 12.6132 14.0106 12.5892 14.0133 12.5655C14.0356 12.3697 14.0552 12.1808 14.0601 12.0009C14.0707 11.6107 14.0051 11.4123 13.9157 11.3224C13.9156 11.3223 13.9155 11.3223 13.9155 11.3222C13.9126 11.3191 13.8864 11.2915 13.7729 11.2915C13.6493 11.2915 13.4713 11.326 13.2346 11.4099C12.7622 11.5775 12.183 11.8946 11.5681 12.2653C11.3012 12.4262 11.0121 12.6071 10.7283 12.7847C10.4002 12.99 10.079 13.1909 9.80688 13.3518C9.53987 13.5096 9.28287 13.6519 9.05422 13.7559C8.84354 13.8518 8.58911 13.948 8.34998 13.948C8.2074 13.948 7.9274 13.8951 7.79957 13.604C7.70457 13.3877 7.7704 13.1827 7.79803 13.1054C7.8665 12.9139 8.01277 12.6976 8.16554 12.4957C8.48909 12.0681 9.00902 11.4927 9.60469 10.8715ZM8.73967 13.442C8.74013 13.4408 8.74066 13.4394 8.74126 13.4379C8.73813 13.4496 8.73616 13.4519 8.73967 13.442Z" fill="#232323"/>
</svg>
