<svg width="24" height="24" viewBox="0 0 24 24" fill="none" xmlns="http://www.w3.org/2000/svg">
<path fill-rule="evenodd" clip-rule="evenodd" d="M7 8.5C7 7.67157 7.67157 7 8.5 7H15.5C16.3284 7 17 7.67157 17 8.5V15.5C17 16.3284 16.3284 17 15.5 17H8.5C7.67157 17 7 16.3284 7 15.5V8.5ZM8.5 8C8.22386 8 8 8.22386 8 8.5V15.5C8 15.7761 8.22386 16 8.5 16H15.5C15.7761 16 16 15.7761 16 15.5V8.5C16 8.22386 15.7761 8 15.5 8H8.5Z" fill="#232323"/>
<path fill-rule="evenodd" clip-rule="evenodd" d="M12 10.25C11.0335 10.25 10.25 11.0335 10.25 12C10.25 12.9665 11.0335 13.75 12 13.75C12.9665 13.75 13.75 12.9665 13.75 12C13.75 11.0335 12.9665 10.25 12 10.25ZM9.25 12C9.25 10.4812 10.4812 9.25 12 9.25C13.5188 9.25 14.75 10.4812 14.75 12C14.75 13.5188 13.5188 14.75 12 14.75C10.4812 14.75 9.25 13.5188 9.25 12Z" fill="#232323"/>
<path fill-rule="evenodd" clip-rule="evenodd" d="M6.93411 3.5L8.41588 5.72265L7.58383 6.27735L5.68747 3.43282C5.42165 3.03409 5.70749 2.5 6.1867 2.5H17.813C18.2922 2.5 18.578 3.03409 18.3122 3.43282L16.4159 6.27735L15.5838 5.72265L17.0656 3.5H6.93411Z" fill="#232323"/>
<path fill-rule="evenodd" clip-rule="evenodd" d="M17.0655 20.5L15.5838 18.2773L16.4158 17.7226L18.3122 20.5672C18.578 20.9659 18.2921 21.5 17.8129 21.5L6.18663 21.5C5.70741 21.5 5.42158 20.9659 5.6874 20.5672L7.58376 17.7226L8.41581 18.2773L6.93404 20.5L17.0655 20.5Z" fill="#232323"/>
<path fill-rule="evenodd" clip-rule="evenodd" d="M20.4998 6.93423L18.2771 8.416L17.7224 7.58395L20.5669 5.68759C20.9657 5.42177 21.4998 5.70761 21.4998 6.18682L21.4998 17.8131C21.4998 18.2923 20.9657 18.5782 20.5669 18.3124L17.7224 16.416L18.2771 15.5839L20.4998 17.0657L20.4998 6.93423Z" fill="#232323"/>
<path fill-rule="evenodd" clip-rule="evenodd" d="M3.49976 17.0658L5.72241 15.584L6.27711 16.4161L3.43258 18.3124C3.03384 18.5782 2.49976 18.2924 2.49976 17.8132L2.49975 6.18688C2.49975 5.70766 3.03384 5.42183 3.43257 5.68765L6.27711 7.584L5.72241 8.41605L3.49975 6.93428L3.49976 17.0658Z" fill="#232323"/>
</svg>
