<svg width="46" height="46" viewBox="0 0 46 46" fill="none" xmlns="http://www.w3.org/2000/svg">
<path d="M23 46C35.7025 46 46 35.7025 46 23C46 10.2975 35.7025 0 23 0C10.2975 0 0 10.2975 0 23C0 35.7025 10.2975 46 23 46Z" fill="white"/>
<path d="M22.9999 45.5739C35.4672 45.5739 45.5739 35.4672 45.5739 22.9999C45.5739 10.5325 35.4672 0.425781 22.9999 0.425781C10.5325 0.425781 0.425781 10.5325 0.425781 22.9999C0.425781 35.4672 10.5325 45.5739 22.9999 45.5739Z" stroke="#D4DBE2"/>
<path d="M18.3149 15.617L22.8587 11.0732L27.4025 15.617" stroke="#5E668D" stroke-width="1.5" stroke-linecap="round" stroke-linejoin="round"/>
<path d="M28.6465 33.7457V25.5952H31.116C32.9322 25.5952 34.2278 26.2154 34.2278 28.0537C34.2278 29.8366 32.9322 30.6561 31.1603 30.6561H29.9311V33.7457H28.6465ZM29.9311 29.6262H31.0385C32.3452 29.6262 32.9654 29.1278 32.9654 28.0537C32.9654 26.9795 32.2899 26.6251 30.9942 26.6251H29.9311V29.6262Z" fill="#5E668D"/>
<path d="M23.3982 33.8895C21.3052 33.8895 19.8545 32.2616 19.8545 29.637C19.8545 27.0125 21.3052 25.4399 23.3982 25.4399C25.4912 25.4399 26.953 27.0125 26.953 29.637C26.953 32.2616 25.4912 33.8895 23.3982 33.8895ZM23.3982 32.771C24.7492 32.771 25.6352 31.5528 25.6352 29.637C25.6352 27.7212 24.7492 26.5584 23.3982 26.5584C22.0472 26.5584 21.1723 27.7212 21.1723 29.637C21.1723 31.5528 22.0472 32.771 23.3982 32.771Z" fill="#5E668D"/>
<path d="M15.5131 33.7457V26.6694H13.1211V25.5952H19.2008V26.6694H16.7977V33.7457H15.5131Z" fill="#5E668D"/>
</svg>
